# xmcd
#
# Track frame offsets: 
#        150
#        32825
#        52670
#
# Disc length: 966 seconds
#
# Revision: 1
# Processed by: cddbd v1.5.2PL0 Copyright (c) Steve Scherf et al.
# Submitted via: ExactAudioCopy v1.3
#
DISCID=1903c403
DTITLE=Dusty Springfield - In Private
DYEAR=1989
DGENRE=Pop
TTITLE0=In Private (12'' Version)
TTITLE1=In Private (7'' Version)
TTITLE2=In Private (Instrumental Version)
EXTD=
EXTT0=
EXTT1=
EXTT2=
PLAYORDER=
